<svg width="61" height="60" viewBox="0 0 61 60" fill="none" xmlns="http://www.w3.org/2000/svg">
<g id="ant-design:cloud-upload-outlined">
<path id="Vector" d="M31.0867 26.8949C31.0429 26.8389 30.9869 26.7936 30.9229 26.7624C30.859 26.7313 30.7888 26.7151 30.7176 26.7151C30.6465 26.7151 30.5763 26.7313 30.5123 26.7624C30.4483 26.7936 30.3923 26.8389 30.3485 26.8949L23.786 35.1977C23.7319 35.2668 23.6983 35.3497 23.6891 35.4369C23.6799 35.5242 23.6954 35.6123 23.734 35.6911C23.7725 35.77 23.8324 35.8364 23.9069 35.8828C23.9813 35.9292 24.0674 35.9537 24.1551 35.9535H28.4852V50.1567C28.4852 50.4145 28.6961 50.6254 28.9539 50.6254H32.4696C32.7274 50.6254 32.9383 50.4145 32.9383 50.1567V35.9594H37.2801C37.6727 35.9594 37.8895 35.5082 37.6492 35.2035L31.0867 26.8949Z" fill="#BBBBBB"/>
<path id="Vector_2" d="M48.2607 21.4863C45.5771 14.4082 38.7393 9.375 30.7295 9.375C22.7197 9.375 15.8818 14.4023 13.1982 21.4805C8.17676 22.7988 4.46777 27.375 4.46777 32.8125C4.46777 39.2871 9.71191 44.5312 16.1807 44.5312H18.5303C18.7881 44.5312 18.999 44.3203 18.999 44.0625V40.5469C18.999 40.2891 18.7881 40.0781 18.5303 40.0781H16.1807C14.2061 40.0781 12.3486 39.293 10.9658 37.8691C9.58887 36.4512 8.85645 34.541 8.9209 32.5605C8.97363 31.0137 9.50098 29.5605 10.4561 28.3359C11.4346 27.0879 12.8057 26.1797 14.3291 25.7754L16.5498 25.1953L17.3643 23.0508C17.8682 21.7148 18.5713 20.4668 19.4561 19.3359C20.3295 18.2151 21.3642 17.2298 22.5264 16.4121C24.9346 14.7188 27.7705 13.8223 30.7295 13.8223C33.6885 13.8223 36.5244 14.7188 38.9326 16.4121C40.0986 17.2324 41.1299 18.2168 42.0029 19.3359C42.8877 20.4668 43.5908 21.7207 44.0947 23.0508L44.9033 25.1895L47.1182 25.7754C50.2939 26.6309 52.5146 29.5195 52.5146 32.8125C52.5146 34.752 51.7588 36.5801 50.3877 37.9512C49.7153 38.6275 48.9154 39.1637 48.0344 39.5288C47.1533 39.8939 46.2086 40.0806 45.2549 40.0781H42.9053C42.6475 40.0781 42.4365 40.2891 42.4365 40.5469V44.0625C42.4365 44.3203 42.6475 44.5312 42.9053 44.5312H45.2549C51.7236 44.5312 56.9678 39.2871 56.9678 32.8125C56.9678 27.3809 53.2705 22.8105 48.2607 21.4863Z" fill="#BBBBBB"/>
</g>
</svg>
